<svg width="512" height="512" viewBox="0 0 512 512" fill="none" xmlns="http://www.w3.org/2000/svg">
<path d="M142.02 182L55.709 415.426C102.613 474.275 174.896 512 256 512C337.104 512 409.387 474.275 456.291 415.426L369.98 182H142.02Z" fill="#B2381B"/>
<path d="M159.994 182H142.02L55.709 415.426C84.206 451.18 122.082 479.114 165.602 495.551L180.78 434.125C182.188 428.426 175.109 424.571 171.086 428.846L166.297 433.934C162.2 438.287 155.017 434.21 156.655 428.461L164.965 399.282C166.523 393.811 159.992 389.679 155.715 393.43C151.269 397.33 144.557 392.723 146.597 387.172L222.02 182H159.994Z" fill="#9E2D16"/>
<path d="M222.228 33.127C198.663 40.423 193.667 0 175 0C156.333 0 167.01 78.333 167.01 78.333L222.228 47V33.127Z" fill="#C04A27"/>
<path d="M289.772 33.127C313.337 40.423 318.333 0 337 0C355.667 0 344.99 78.333 344.99 78.333L289.772 47V33.127Z" fill="#C04A27"/>
<path d="M347.836 44.816C337.948 35.598 325.993 28.504 312.062 23.55C306.319 30.814 299.69 36.198 289.771 33.127V47L344.989 78.333C344.99 78.333 347.168 62.345 347.836 44.816Z" fill="#B2381B"/>
<path d="M167.01 78.333L222.228 47V33.127C212.426 36.162 205.838 30.939 200.141 23.805C186.096 28.899 174.089 36.197 164.198 45.665C164.903 62.857 167.01 78.333 167.01 78.333Z" fill="#B2381B"/>
<path d="M390.504 176.403C371.261 158.858 360.46 133.902 360.46 107.861V107.025C360.46 77.716 339 30 256.46 30C173.92 30 152.46 77.716 152.46 107.025C152.46 133.416 141.208 158.499 121.675 176.245C99.316 196.558 86 222.077 86 249.794C86 316.068 162.112 369.794 256 369.794C349.888 369.794 426 316.068 426 249.794C426 222.15 412.756 196.691 390.504 176.403Z" fill="#D85E41"/>
<path d="M334.286 356.333C198.571 357.667 138.864 301 138.864 241.667C138.864 182.334 178.333 157.667 188.5 113.834C198.667 70.001 249.667 33.127 289.772 33.127V33.037C279.964 31.092 268.912 30 256.46 30C173.92 30 152.46 77.716 152.46 107.025C152.46 133.416 141.208 158.499 121.675 176.245C99.316 196.558 86 222.077 86 249.794C86 316.068 162.112 369.794 256 369.794C284.233 369.794 310.854 364.93 334.286 356.333Z" fill="#C04A27"/>
<path d="M256 322C281.829 322 302.768 301.061 302.768 275.232C302.768 249.403 281.829 228.464 256 228.464C230.171 228.464 209.232 249.403 209.232 275.232C209.232 301.061 230.171 322 256 322Z" fill="#F4CB6E"/>
<path d="M287.45 158.164H256H224.55C207.18 158.164 193.1 172.245 193.1 189.614V259.232C193.1 276.602 207.181 290.682 224.55 290.682C241.919 290.682 256 276.601 256 259.232C256 276.602 270.081 290.682 287.45 290.682C304.82 290.682 318.9 276.601 318.9 259.232V189.614C318.901 172.244 304.82 158.164 287.45 158.164Z" fill="#F9D778"/>
<path d="M224.55 259.232V189.614C224.55 172.244 238.631 158.164 256 158.164H224.55C207.18 158.164 193.1 172.245 193.1 189.614V259.232C193.1 276.602 207.181 290.682 224.55 290.682C230.28 290.682 235.648 289.142 240.275 286.464C230.877 281.026 224.55 270.871 224.55 259.232Z" fill="#F4CB6E"/>
<path d="M256 290.683C251.858 290.683 248.5 287.325 248.5 283.183V178.546C248.5 174.404 251.858 171.046 256 171.046C260.142 171.046 263.5 174.404 263.5 178.546V283.182C263.5 287.325 260.142 290.683 256 290.683Z" fill="#F4CB6E"/>
<path d="M284.487 140.938C273.591 135.146 269.089 146.584 256 146.584C242.911 146.584 238.41 135.146 227.513 140.938C199.026 156.08 227.513 190.726 256 190.726C284.487 190.726 312.973 156.08 284.487 140.938Z" fill="#7E5966"/>
<path d="M245.787 144.108C239.473 141.118 235.004 136.957 227.513 140.938C199.026 156.08 227.513 190.726 256 190.726C259.899 190.726 263.796 190.073 267.549 188.914C245.655 182.152 228.736 158.031 245.787 144.108Z" fill="#725057"/>
<path d="M188.5 128.833C196.784 128.833 203.5 122.117 203.5 113.833C203.5 105.549 196.784 98.833 188.5 98.833C180.216 98.833 173.5 105.549 173.5 113.833C173.5 122.117 180.216 128.833 188.5 128.833Z" fill="#543438"/>
<path d="M196 113.833C200.142 113.833 203.5 110.475 203.5 106.333C203.5 102.191 200.142 98.833 196 98.833C191.858 98.833 188.5 102.191 188.5 106.333C188.5 110.475 191.858 113.833 196 113.833Z" fill="white"/>
<path d="M323.5 128.833C331.784 128.833 338.5 122.117 338.5 113.833C338.5 105.549 331.784 98.833 323.5 98.833C315.216 98.833 308.5 105.549 308.5 113.833C308.5 122.117 315.216 128.833 323.5 128.833Z" fill="#543438"/>
<path d="M331 113.833C335.142 113.833 338.5 110.475 338.5 106.333C338.5 102.191 335.142 98.833 331 98.833C326.858 98.833 323.5 102.191 323.5 106.333C323.5 110.475 326.858 113.833 331 113.833Z" fill="white"/>
</svg>
